
<svg xmlns="http://www.w3.org/2000/svg" viewBox="0 0 48 48" id="team"><path fill="#ffa40b" fill-rule="evenodd" d="M48 23.977C48 37.248 37.248 48 23.978 48 10.752 48 0 37.248 0 23.977 0 10.752 10.752 0 23.978 0 37.248 0 48 10.752 48 23.977z" clip-rule="evenodd"></path><path fill="#fff" d="M13.999 26.42c-1.654 0-3-1.346-3-3v-1.389h1v1.389c0 1.103.897 2 2 2s2-.897 2-2v-1.389h1v1.389c0 1.655-1.346 3-3 3z"></path><path fill="#fff" d="M16.624 22.678a.498.498 0 0 1-.389-.187l-.669-.83h-3.147l-.666.83a.5.5 0 0 1-.873-.181l-.451-1.647a1.48 1.48 0 0 1 .989-1.744 1.68 1.68 0 0 1 1.91-1.263l2.85.475c.456.076.852.325 1.117.703s.366.835.283 1.289l-.466 2.162a.502.502 0 0 1-.488.393zm-3.572-4.046a.682.682 0 0 0-.683.684c0 .276-.224.532-.5.532a.475.475 0 0 0-.372.178.475.475 0 0 0-.096.399l.186.676.203-.253a.5.5 0 0 1 .39-.187h3.626c.151 0 .294.068.389.187l.162.201.242-1.123a.695.695 0 0 0-.12-.518.706.706 0 0 0-.463-.292l-2.85-.475a.75.75 0 0 0-.114-.009zm-2.075 15.006a.5.5 0 0 1-.5-.5v-1.12c0-.309-.115-.605-.324-.834l-.362-.396a.499.499 0 1 1 .738-.674l.362.396c.377.413.585.949.585 1.508v1.12a.499.499 0 0 1-.499.5z"></path><path fill="#fff" d="M8.5 33.638a.5.5 0 0 1-.5-.5v-3.114c0-1.037.652-1.977 1.623-2.341L12 26.791V25.41a.501.501 0 0 1 .801-.399c.71.536 1.687.536 2.397-.002a.502.502 0 0 1 .802.399v1.383l2.378.892c.141.052.275.118.402.194a.5.5 0 1 1-.514.858 1.419 1.419 0 0 0-.239-.114l-2.704-1.014a.503.503 0 0 1-.323-.469v-.893a2.973 2.973 0 0 1-2 .001v.892a.5.5 0 0 1-.324.468L9.974 28.62A1.505 1.505 0 0 0 9 30.024v3.114a.5.5 0 0 1-.5.5z"></path><path fill="#fff" d="M14 29.638a4 4 0 0 1-3.276-1.705.5.5 0 1 1 .819-.573 3.003 3.003 0 0 0 4.912.002.5.5 0 1 1 .818.574A4.004 4.004 0 0 1 14 29.638zm16.5 4a.5.5 0 0 1-.5-.5v-2.522a1.85 1.85 0 0 0-.876-1.578l-3.621-2.255a.5.5 0 0 1 .528-.848l3.622 2.255A2.84 2.84 0 0 1 31 30.616v2.522a.5.5 0 0 1-.5.5zm-13 0a.5.5 0 0 1-.5-.5v-2.522c0-.994.503-1.9 1.346-2.426l3.619-2.255a.5.5 0 0 1 .529.849l-3.619 2.255c-.548.341-.875.93-.875 1.576v2.522a.5.5 0 0 1-.5.501z"></path><path fill="#fff" d="M21.73 24.585h1v1.773h-1zm3.537 0h1v1.773h-1zm-5.099 9.053a.5.5 0 0 1-.5-.5v-1.411c0-.352-.13-.688-.367-.948a.499.499 0 1 1 .738-.674c.406.444.629 1.02.629 1.622v1.411a.5.5 0 0 1-.5.5zm7.664 0a.5.5 0 0 1-.5-.5v-1.411c0-.602.224-1.178.629-1.622a.5.5 0 0 1 .739.675 1.401 1.401 0 0 0-.368.947v1.411a.5.5 0 0 1-.5.5z"></path><path fill="#fff" d="M23.993 25.518a3.767 3.767 0 0 1-3.763-3.764V21a.5.5 0 0 1 1 0v.754c0 1.524 1.24 2.764 2.763 2.764s2.763-1.24 2.763-2.764v-1.479a.5.5 0 0 1 1 0v1.479a3.767 3.767 0 0 1-3.763 3.764z"></path><path fill="#fff" d="M20.729 21.624a.5.5 0 0 1-.5-.5c0-1.273.801-2.428 1.992-2.874a.5.5 0 0 1 .351.937 2.077 2.077 0 0 0-1.343 1.937.5.5 0 0 1-.5.5zM24 28.922a4.057 4.057 0 0 1-3.219-1.601.5.5 0 0 1 .798-.604A3.052 3.052 0 0 0 24 27.921c.945 0 1.851-.45 2.422-1.204a.5.5 0 1 1 .797.603A4.055 4.055 0 0 1 24 28.922z"></path><path fill="#fff" d="M28.737 22.586a.5.5 0 0 1-.5-.5c0-.95-.773-1.722-1.723-1.722l-.237-.007h-.001a7.66 7.66 0 0 1-4.52-1.47.5.5 0 1 1 .587-.809 6.682 6.682 0 0 0 3.949 1.279l.237.007a2.722 2.722 0 0 1 2.707 2.722.498.498 0 0 1-.499.5z"></path><path fill="#fff" d="M20.758 27.743h-.644a1.677 1.677 0 0 1-1.657-1.945c.241-1.505.364-3.041.364-4.563v-1.657a5.222 5.222 0 0 1 5.216-5.216 5.222 5.222 0 0 1 5.216 5.216.5.5 0 0 1-1 0c0-2.325-1.892-4.216-4.216-4.216s-4.216 1.891-4.216 4.216v1.657c0 1.575-.126 3.163-.376 4.721a.678.678 0 0 0 .67.787h.644a.5.5 0 1 1-.001 1z"></path><path fill="#fff" d="M27.958 27.743h-.716a.5.5 0 0 1 0-1h.716a.682.682 0 0 0 .671-.786 29.839 29.839 0 0 1-.376-4.721V19.58a.5.5 0 0 1 1 0v1.655c0 1.525.123 3.06.364 4.563a1.679 1.679 0 0 1-1.659 1.945zm6.041-1.323c-1.654 0-3-1.346-3-3v-1.389h1v1.389c0 1.103.897 2 2 2s2-.897 2-2v-1.389h1v1.389c0 1.655-1.346 3-3 3z"></path><path fill="#fff" d="M36.624 22.678a.498.498 0 0 1-.389-.187l-.669-.83h-3.147l-.666.83a.5.5 0 0 1-.873-.181l-.451-1.647a1.48 1.48 0 0 1 .989-1.744 1.68 1.68 0 0 1 1.91-1.263l2.85.475c.456.076.852.325 1.117.703s.366.835.283 1.289l-.466 2.162a.502.502 0 0 1-.488.393zm-3.572-4.046a.682.682 0 0 0-.683.684c0 .276-.224.532-.5.532a.475.475 0 0 0-.372.178.475.475 0 0 0-.096.399l.186.676.203-.253a.5.5 0 0 1 .39-.187h3.626c.151 0 .294.068.389.187l.162.201.242-1.123a.695.695 0 0 0-.12-.518.706.706 0 0 0-.463-.292l-2.85-.475a.75.75 0 0 0-.114-.009zm3.971 15.006a.5.5 0 0 1-.5-.5v-1.12c0-.56.208-1.095.585-1.508l.362-.396a.499.499 0 1 1 .738.674l-.362.396a1.24 1.24 0 0 0-.324.834v1.12a.498.498 0 0 1-.499.5z"></path><path fill="#fff" d="M39.5 33.638a.5.5 0 0 1-.5-.5v-3.114c0-.622-.391-1.186-.973-1.404l-2.703-1.014a.5.5 0 0 1-.324-.468v-.892a2.973 2.973 0 0 1-2-.001v.893a.5.5 0 0 1-.324.468l-2.702 1.014a1.524 1.524 0 0 0-.244.117.5.5 0 0 1-.514-.858c.128-.077.264-.143.407-.196L32 26.791v-1.383a.5.5 0 0 1 .801-.399 1.988 1.988 0 0 0 2.397.002.501.501 0 0 1 .802.399v1.381l2.378.892A2.511 2.511 0 0 1 40 30.024v3.114a.5.5 0 0 1-.5.5z"></path><path fill="#fff" d="M34 29.638a4 4 0 0 1-3.276-1.705.5.5 0 1 1 .819-.573 3.003 3.003 0 0 0 4.912.002.499.499 0 1 1 .818.574A4.004 4.004 0 0 1 34 29.638z"></path></svg>